<svg width="292" height="86" viewBox="0 0 292 86" fill="none" xmlns="http://www.w3.org/2000/svg">
<g filter="url(#filter0_d_26_83)">
<path d="M14 32L45 14L60 23.5L31 40.5L45 49L60 40.5V58.5L45 67L14 50V32Z" fill="white"/>
<path d="M106 50L75 68L60 58.5L89 41.5L75 33L60 40.5V23.5L75 15L106 32V50Z" fill="white"/>
</g>
<path d="M127.2 61L114.528 25.24H120.624L130.992 55.768H129.792L140.112 25.24H146.208L133.536 61H127.2ZM157.768 61.576C155.176 61.576 152.872 60.984 150.856 59.8C148.872 58.584 147.32 56.952 146.2 54.904C145.08 52.824 144.52 50.504 144.52 47.944C144.52 45.32 145.08 43 146.2 40.984C147.352 38.968 148.888 37.384 150.808 36.232C152.728 35.048 154.904 34.456 157.336 34.456C159.288 34.456 161.032 34.792 162.568 35.464C164.104 36.136 165.4 37.064 166.456 38.248C167.512 39.4 168.312 40.728 168.856 42.232C169.432 43.736 169.72 45.336 169.72 47.032C169.72 47.448 169.704 47.88 169.672 48.328C169.64 48.776 169.576 49.192 169.48 49.576H148.792V45.256H166.408L163.816 47.224C164.136 45.656 164.024 44.264 163.48 43.048C162.968 41.8 162.168 40.824 161.08 40.12C160.024 39.384 158.776 39.016 157.336 39.016C155.896 39.016 154.616 39.384 153.496 40.12C152.376 40.824 151.512 41.848 150.904 43.192C150.296 44.504 150.056 46.104 150.184 47.992C150.024 49.752 150.264 51.288 150.904 52.6C151.576 53.912 152.504 54.936 153.688 55.672C154.904 56.408 156.28 56.776 157.816 56.776C159.384 56.776 160.712 56.424 161.8 55.72C162.92 55.016 163.8 54.104 164.44 52.984L168.856 55.144C168.344 56.36 167.544 57.464 166.456 58.456C165.4 59.416 164.12 60.184 162.616 60.76C161.144 61.304 159.528 61.576 157.768 61.576ZM173.094 61V24.664H178.518V61H173.094ZM195.467 61.576C192.971 61.576 190.683 60.984 188.603 59.8C186.555 58.616 184.923 57 183.707 54.952C182.491 52.904 181.883 50.584 181.883 47.992C181.883 45.368 182.491 43.048 183.707 41.032C184.923 38.984 186.555 37.384 188.603 36.232C190.651 35.048 192.939 34.456 195.467 34.456C198.027 34.456 200.315 35.048 202.331 36.232C204.379 37.384 205.995 38.984 207.179 41.032C208.395 43.048 209.003 45.368 209.003 47.992C209.003 50.616 208.395 52.952 207.179 55C205.963 57.048 204.331 58.664 202.283 59.848C200.235 61 197.963 61.576 195.467 61.576ZM195.467 56.536C197.003 56.536 198.363 56.168 199.547 55.432C200.731 54.696 201.659 53.688 202.331 52.408C203.035 51.096 203.387 49.624 203.387 47.992C203.387 46.36 203.035 44.904 202.331 43.624C201.659 42.344 200.731 41.336 199.547 40.6C198.363 39.864 197.003 39.496 195.467 39.496C193.963 39.496 192.603 39.864 191.387 40.6C190.203 41.336 189.259 42.344 188.555 43.624C187.883 44.904 187.547 46.36 187.547 47.992C187.547 49.624 187.883 51.096 188.555 52.408C189.259 53.688 190.203 54.696 191.387 55.432C192.603 56.168 193.963 56.536 195.467 56.536ZM224.715 61.576C222.123 61.576 219.819 60.984 217.803 59.8C215.819 58.584 214.235 56.952 213.051 54.904C211.899 52.856 211.323 50.536 211.323 47.944C211.323 45.384 211.899 43.08 213.051 41.032C214.203 38.984 215.787 37.384 217.803 36.232C219.819 35.048 222.123 34.456 224.715 34.456C226.475 34.456 228.123 34.776 229.659 35.416C231.195 36.024 232.523 36.872 233.643 37.96C234.795 39.048 235.643 40.312 236.187 41.752L231.435 43.96C230.891 42.616 230.011 41.544 228.795 40.744C227.611 39.912 226.251 39.496 224.715 39.496C223.243 39.496 221.915 39.864 220.731 40.6C219.579 41.304 218.667 42.312 217.995 43.624C217.323 44.904 216.987 46.36 216.987 47.992C216.987 49.624 217.323 51.096 217.995 52.408C218.667 53.688 219.579 54.696 220.731 55.432C221.915 56.168 223.243 56.536 224.715 56.536C226.283 56.536 227.643 56.136 228.795 55.336C229.979 54.504 230.859 53.4 231.435 52.024L236.187 54.28C235.675 55.656 234.843 56.904 233.691 58.024C232.571 59.112 231.243 59.976 229.707 60.616C228.171 61.256 226.507 61.576 224.715 61.576ZM239.568 61V35.032H244.992V61H239.568ZM239.568 31.48V25.24H244.992V31.48H239.568ZM260.646 61.288C257.926 61.288 255.814 60.52 254.31 58.984C252.806 57.448 252.054 55.288 252.054 52.504V39.928H247.494V35.032H248.214C249.43 35.032 250.374 34.68 251.046 33.976C251.718 33.272 252.054 32.312 252.054 31.096V29.08H257.478V35.032H263.382V39.928H257.478V52.264C257.478 53.16 257.622 53.928 257.91 54.568C258.198 55.176 258.662 55.656 259.302 56.008C259.942 56.328 260.774 56.488 261.798 56.488C262.054 56.488 262.342 56.472 262.662 56.44C262.982 56.408 263.286 56.376 263.574 56.344V61C263.126 61.064 262.63 61.128 262.086 61.192C261.542 61.256 261.062 61.288 260.646 61.288ZM270.547 70.6L275.395 58.696L275.539 63.256L264.307 34.984H270.115L278.419 56.68H276.451L284.707 34.984H290.563L276.403 70.6H270.547Z" fill="url(#paint0_linear_26_83)"/>
<defs>
<filter id="filter0_d_26_83" x="0.1" y="0.1" width="123.8" height="85.8" filterUnits="userSpaceOnUse" color-interpolation-filters="sRGB">
<feFlood flood-opacity="0" result="BackgroundImageFix"/>
<feColorMatrix in="SourceAlpha" type="matrix" values="0 0 0 0 0 0 0 0 0 0 0 0 0 0 0 0 0 0 127 0" result="hardAlpha"/>
<feOffset dx="2" dy="2"/>
<feGaussianBlur stdDeviation="7.95"/>
<feColorMatrix type="matrix" values="0 0 0 0 1 0 0 0 0 1 0 0 0 0 1 0 0 0 0.7 0"/>
<feBlend mode="normal" in2="BackgroundImageFix" result="effect1_dropShadow_26_83"/>
<feBlend mode="normal" in="SourceGraphic" in2="effect1_dropShadow_26_83" result="shape"/>
</filter>
<linearGradient id="paint0_linear_26_83" x1="114" y1="61" x2="308.5" y2="29" gradientUnits="userSpaceOnUse">
<stop offset="0.0365814" stop-color="#8F79C4"/>
<stop offset="0.518626" stop-color="#4567D3"/>
<stop offset="1" stop-color="#957FBD"/>
</linearGradient>
</defs>
</svg>
